<?xml version="1.0" encoding="utf-8"?>
<!-- Generator: Adobe Illustrator 25.2.1, SVG Export Plug-In . SVG Version: 6.00 Build 0)  -->
<svg version="1.1" id="Layer_1" xmlns="http://www.w3.org/2000/svg" xmlns:xlink="http://www.w3.org/1999/xlink" x="0px" y="0px"
	 viewBox="0 0 348.78 244.56" style="enable-background:new 0 0 348.78 244.56;" xml:space="preserve">
<style type="text/css">
	.st0{fill:#F3BC58;}
	.st1{fill:#9696B8;}
	.st2{fill:#F3C2C4;}
	.st3{fill:#FFFFFF;}
</style>
<g>
	<g>
		<g>
			<polygon class="st0" points="121.48,234.7 121.48,26.41 119.17,26.41 10.57,129.46 			"/>
			<polygon class="st0" points="121.48,32.33 121.48,23.84 116.21,29.22 			"/>
		</g>
		<polygon class="st0" points="121.48,216.74 121.48,42.2 29.51,129.47 		"/>
		<polygon class="st1" points="121.48,198.76 121.48,60.18 48.45,129.47 		"/>
		<polygon class="st1" points="121.48,180.78 121.48,78.16 67.4,129.47 		"/>
		<polygon class="st2" points="121.48,162.81 121.48,96.13 86.35,129.47 		"/>
		<polygon class="st2" points="121.48,144.83 121.48,114.11 105.29,129.47 		"/>
	</g>
	<rect x="113.46" y="23.84" class="st3" width="15.91" height="210.86"/>
</g>
<g>
	<path class="st1" d="M124.67,31.82h60.47v73.95l63.34-73.95h80.42l-71.41,73.86l74.62,121.83h-74.47l-41.26-80.48l-31.24,32.73
		v47.75h-60.47V31.82z"/>
</g>
</svg>
